<?xml version="1.0" encoding="utf-8"?>
<!-- Generator: Adobe Illustrator 18.1.1, SVG Export Plug-In . SVG Version: 6.00 Build 0)  -->
<svg version="1.1"
	 id="svg8" sodipodi:docname="parkbot-focus.svg" inkscape:version="0.92.0 r15299" xmlns:sodipodi="http://sodipodi.sourceforge.net/DTD/sodipodi-0.dtd" xmlns:svg="http://www.w3.org/2000/svg" xmlns:inkscape="http://www.inkscape.org/namespaces/inkscape" xmlns:dc="http://purl.org/dc/elements/1.1/" xmlns:cc="http://creativecommons.org/ns#" xmlns:rdf="http://www.w3.org/1999/02/22-rdf-syntax-ns#"
	 xmlns="http://www.w3.org/2000/svg" xmlns:xlink="http://www.w3.org/1999/xlink" x="0px" y="0px" viewBox="-186 186.8 477.6 477.6"
	 enable-background="new -186 186.8 477.6 477.6" xml:space="preserve">
<title  id="title5994">ParkBot</title>
<sodipodi:namedview  fit-margin-right="2" fit-margin-bottom="2" inkscape:snap-center="true" inkscape:snap-object-midpoints="true" inkscape:snap-midpoints="true" inkscape:snap-smooth-nodes="true" inkscape:object-paths="true" inkscape:window-maximized="1" inkscape:window-y="-8" inkscape:window-x="1912" inkscape:window-width="1920" inkscape:pageshadow="2" inkscape:current-layer="layer2" inkscape:pageopacity="0.0" inkscape:document-units="mm" inkscape:window-height="1017" fit-margin-left="2" bordercolor="#666666" pagecolor="#ffffff" inkscape:cy="9.3159692" inkscape:cx="408.55534" borderopacity="1.0" id="base" inkscape:zoom="1.5834095" fit-margin-top="2" showgrid="false" inkscape:snap-intersection-paths="true">
	<sodipodi:guide  inkscape:locked="false" orientation="0,793.70079" position="-22.294443,-68.63901" id="guide5986">
		</sodipodi:guide>
</sodipodi:namedview>
<g id="layer1" transform="translate(-22.294443,-59.890411)" inkscape:groupmode="layer" inkscape:label="Layer 1">
	<path id="rect5647" fill="#247BA0" d="M-153.6,246.8h457.3c5.6,0,10.1,4.5,10.1,10.1v457.3c0,5.6-4.5,10.1-10.1,10.1h-457.3
		c-5.6,0-10.1-4.5-10.1-10.1V256.8C-163.7,251.3-159.2,246.8-153.6,246.8z"/>
</g>
<g id="layer2" transform="translate(-22.294443,-59.890411)" inkscape:groupmode="layer" inkscape:label="Layer 2">
	<g id="g4572" transform="matrix(1.02426,0,0,1.02426,-2.5801322,-3.4922192)">
		<rect id="rect5647-7" x="78.1" y="244.3" fill="#1C5975" width="230.9" height="466.2"/>
		<path id="path4566" inkscape:connector-curvature="0" fill="#1C5975" d="M78.1,244.3V255c0-5.9,4.8-10.7,10.7-10.7H78.1z"/>
		<path id="path4562" inkscape:connector-curvature="0" fill="#1C5975" d="M78.1,699.8v10.7h10.7C82.8,710.5,78.1,705.8,78.1,699.8z
			"/>
	</g>
</g>
<g id="layer5" transform="translate(-11.12032,-32.580568)" inkscape:groupmode="layer" inkscape:label="Layer 5">
</g>
<g id="layer3" transform="translate(-22.294443,-59.890411)" inkscape:groupmode="layer" inkscape:label="Layer 3">
	<path id="rect5649" fill="#060606" d="M-40.3,278.7H205c47.6,0,86.2,38.6,86.2,86.2l0,0c0,47.6-38.6,86.2-86.2,86.2H-40.3
		c-47.6,0-86.2-38.6-86.2-86.2l0,0C-126.5,317.3-87.9,278.7-40.3,278.7z"/>
	<g id="text5653" transform="matrix(1.02426,0,0,1.02426,-2.5801322,-3.4922192)">
		<path id="path5750" inkscape:connector-curvature="0" fill="#FFFFFF" d="M130,511.7H40.3v45.4H130c6.9,0,11.6-1,14.1-2.9
			c2.6-2.1,3.9-5.6,3.9-10.7v-18.3c0-5-1.3-8.4-3.9-10.4C141.6,512.7,136.9,511.7,130,511.7L130,511.7z M1,653.4V482h146.6
			c13.6,0,23.5,2.6,29.5,7.9c6.2,5.2,9.2,13.6,9.2,25.3v38.3c0,11.6-3.1,20-9.2,25.3c-6.1,5.2-15.9,7.8-29.5,7.8H40.3v66.8H1z"/>
	</g>
	<path id="rect5979" inkscape:connector-curvature="0" d="M77.4,278.7v172.4h125.6c48.9,0,88.3-38.5,88.3-86.2
		c0-47.8-39.4-86.2-88.3-86.2H77.4z"/>
</g>
<g id="layer4" transform="translate(-22.294443,-59.890411)" inkscape:groupmode="layer" inkscape:label="Layer 4">
	<circle id="path5714" fill="#1B98E0" cx="202.1" cy="364.4" r="40.3"/>
	<circle id="circle5996" fill="#1B98E0" cx="-40.8" cy="365" r="40.3"/>
</g>
</svg>
